<svg width="16.669922" height="22.916748" viewBox="0 0 16.6699 22.9167" fill="none" xmlns="http://www.w3.org/2000/svg" xmlns:xlink="http://www.w3.org/1999/xlink">
	<desc>
			Created with Pixso.
	</desc>
	<defs/>
	<path id="Vector" d="M7.40771 22.9167C7.28711 22.9166 7.16724 22.8954 7.05371 22.8542C6.83472 22.774 6.64893 22.6227 6.52612 22.4244C6.40332 22.2261 6.35059 21.9923 6.37646 21.7605L7.17871 14.3751L1.04321 14.3751C0.854004 14.3754 0.668213 14.3241 0.505859 14.2268C0.34375 14.1295 0.210938 13.9898 0.12207 13.8227C0.0332031 13.6556 -0.00854492 13.4675 0.00146484 13.2786C0.0114746 13.0896 0.0727539 12.9069 0.178711 12.7501L8.39746 0.458435C8.52734 0.266052 8.71802 0.122681 8.93872 0.0509644C9.15942 -0.020752 9.39795 -0.0166626 9.61621 0.0626221C9.82593 0.140503 10.0051 0.283813 10.127 0.471436C10.249 0.659058 10.3071 0.88092 10.2932 1.10425L9.49121 8.54175L15.6265 8.54175C15.8159 8.5415 16.0015 8.59277 16.1638 8.69006C16.3262 8.78741 16.4587 8.92706 16.5479 9.09418C16.6367 9.26123 16.6782 9.44934 16.6685 9.63831C16.6584 9.82727 16.5972 10.01 16.4912 10.1667L8.27246 22.4584C8.17676 22.5998 8.0481 22.7155 7.89722 22.7955C7.74658 22.8754 7.57837 22.9171 7.40771 22.9167ZM2.99121 12.2917L8.33496 12.2917C8.48022 12.2921 8.62402 12.3229 8.75659 12.3821C8.8894 12.4413 9.0083 12.5276 9.10571 12.6355C9.2041 12.7449 9.27808 12.8738 9.323 13.0139C9.36792 13.1539 9.38257 13.3019 9.36621 13.448L8.89746 17.7709L13.6787 10.6251L8.33496 10.6251C8.18799 10.626 8.04248 10.5958 7.90796 10.5364C7.77344 10.4771 7.65308 10.3899 7.55469 10.2807C7.4563 10.1714 7.38208 10.0427 7.33716 9.90277C7.29199 9.76282 7.2771 9.61493 7.29321 9.46887L7.76196 5.14594L2.99121 12.2917Z" fill="#149211" fill-opacity="1.000000" fill-rule="nonzero"/>
</svg>
