<svg width="18.755615" height="18.754395" viewBox="0 0 18.7556 18.7544" fill="none" xmlns="http://www.w3.org/2000/svg" xmlns:xlink="http://www.w3.org/1999/xlink">
	<desc>
			Created with Pixso.
	</desc>
	<defs/>
	<path id="Vector" d="M9.2439 18.7544C8.74097 18.7538 8.2583 18.5555 7.90015 18.2023L1.22314 11.5148C1.05176 11.3444 0.945068 11.1198 0.921143 10.8794L0.00439453 1.13977C-0.00976562 0.987244 0.0102539 0.833435 0.0622559 0.689392C0.114502 0.545349 0.197998 0.414612 0.306396 0.306458C0.414551 0.197937 0.54541 0.114563 0.689453 0.0623779C0.833496 0.0101318 0.987305 -0.00964355 1.13989 0.00439453L10.8794 0.921021C11.1199 0.945007 11.3445 1.05176 11.5149 1.22314L18.2024 7.90021C18.5566 8.25555 18.7556 8.73694 18.7556 9.23877C18.7556 9.7406 18.5566 10.2219 18.2024 10.5773L10.5774 18.2023C10.2229 18.5549 9.7439 18.7533 9.2439 18.7544ZM2.9939 10.3065L9.2439 16.5565L16.5876 9.21271L10.3376 2.96271L2.20239 2.20227L2.9939 10.3065Z" fill="#FFC700" fill-opacity="1.000000" fill-rule="nonzero"/>
</svg>
